<?xml version="1.0" encoding="UTF-8"?>
<svg version="1.1" xmlns="http://www.w3.org/2000/svg" width="1078" height="838">
<path d="M0 0 C-3.26404274 2.70147882 -6.55429679 5.01401802 -10.1875 7.1875 C-16.06033025 10.88959326 -21.05302303 15.14402093 -26 20 C-27.03253906 20.99580078 -27.03253906 20.99580078 -28.0859375 22.01171875 C-43.9262663 38.4468425 -49.67938295 61.18343488 -50.25 83.4375 C-49.73338076 103.88954411 -45.06097168 124.22703859 -37 143 C-36.71286133 143.66918457 -36.42572266 144.33836914 -36.12988281 145.02783203 C-29.51509168 160.18464263 -21.53923031 174.99469613 -11.36328125 188.06640625 C-10 190 -10 190 -10 192 C-9.34 192 -8.68 192 -8 192 C-6.7109375 193.4609375 -6.7109375 193.4609375 -5.375 195.375 C-4.70597656 196.31472656 -4.70597656 196.31472656 -4.0234375 197.2734375 C-3 199 -3 199 -3 201 C-2.34 201 -1.68 201 -1 201 C0.4375 202.71484375 0.4375 202.71484375 2 204.9375 C4.04816804 207.98632637 4.04816804 207.98632637 7 210 C7 210.66 7 211.32 7 212 C-3.69685132 209.1089591 -12.98138665 202.17942026 -22 196 C-22.99 195.34 -23.98 194.68 -25 194 C-25 193.34 -25 192.68 -25 192 C-25.8353125 191.62875 -25.8353125 191.62875 -26.6875 191.25 C-30.55701002 189.15837296 -34.11809266 186.33694534 -37 183 C-37 182.34 -37 181.68 -37 181 C-37.66 181 -38.32 181 -39 181 C-40.78020794 178.99764646 -42.42999186 176.99361548 -44.0625 174.875 C-44.55129639 174.24480957 -45.04009277 173.61461914 -45.54370117 172.96533203 C-53.21438333 162.93626083 -59.65302387 152.44881948 -65 141 C-80.99598079 141.4796396 -96.57334921 145.0916637 -108 157 C-116.07025153 166.03328871 -120.18141207 178.05419298 -125 189 C-129.49609691 199.16844966 -134.41410938 208.73188788 -140.40795898 218.11425781 C-140.85985596 218.82549805 -141.31175293 219.53673828 -141.77734375 220.26953125 C-142.18202881 220.89448486 -142.58671387 221.51943848 -143.00366211 222.16333008 C-144.10819313 224.19944546 -144.75790274 225.6877917 -145 228 C-144.1212161 230.23495154 -144.1212161 230.23495154 -142.6484375 232.44921875 C-141.86533203 233.72249023 -141.86533203 233.72249023 -141.06640625 235.02148438 C-140.50824219 235.90126953 -139.95007813 236.78105469 -139.375 237.6875 C-138.29805786 239.41969007 -137.22252627 241.15275793 -136.1484375 242.88671875 C-135.34865479 244.1720752 -135.34865479 244.1720752 -134.53271484 245.48339844 C-132.67450778 248.53443355 -130.94009519 251.64107943 -129.22412109 254.77368164 C-127.08025501 258.67274722 -124.8503138 262.52202811 -122.625 266.375 C-122.1815625 267.1484375 -121.738125 267.921875 -121.28125 268.71875 C-120.3628372 270.30891616 -119.43076672 271.89126523 -118.48583984 273.46582031 C-117.42868446 275.26885562 -116.42934058 277.10632472 -115.47119141 278.96386719 C-112.52064289 284.47963306 -112.52064289 284.47963306 -107.66748047 288.16162109 C-104.8142354 288.84234454 -102.04342241 289.20410823 -99.125 289.5 C-86.69662687 291.30659857 -74.83838911 294.27247226 -62.75 297.625 C-41.2738848 304.07379748 -41.2738848 304.07379748 -19.125 306.4375 C-18.34898437 306.45748047 -17.57296875 306.47746094 -16.7734375 306.49804688 C-9.54336684 306.49198138 -4.34155653 304.23974972 0.875 299.25 C1.57625 298.5075 2.2775 297.765 3 297 C3.66 297 4.32 297 5 297 C5.12503906 296.2678125 5.25007812 295.535625 5.37890625 294.78125 C5.97275916 292.12198414 6.81542871 289.97279107 7.9375 287.5 C12.48772656 276.28195394 12.29885182 264.28798785 12.1875 252.375 C12.18063864 250.87060703 12.17413082 249.3662124 12.16796875 247.86181641 C12.10529783 237.22202259 11.7840834 226.61312885 11 216 C11.33 216 11.66 216 12 216 C12.1959375 216.89976562 12.391875 217.79953125 12.59375 218.7265625 C16.64963493 236.49576136 22.92961996 253.20242142 32 269 C33.0441486 270.9778584 34.08601064 272.95692653 35.125 274.9375 C37.71080024 279.64462698 40.63126214 283.82620414 44 288 C44.66902344 288.85335938 45.33804688 289.70671875 46.02734375 290.5859375 C53.99643491 300.58581638 62.72651183 309.37224448 73 317 C74.28390625 317.96873047 74.28390625 317.96873047 75.59375 318.95703125 C104.4703231 339.51942249 139.7183934 343.59191254 174 339 C175.85345349 338.78541442 177.70748301 338.57562096 179.5625 338.375 C180.696875 338.25125 181.83125 338.1275 183 338 C174.07956335 350.19126343 159.13965639 356.6504058 144.57763672 359.22607422 C126.68702901 361.85890441 108.74230642 359.60393736 91 357 C88.53788611 356.6475583 86.07564151 356.29602875 83.61328125 355.9453125 C79.9460135 355.42280567 76.27933778 354.8977122 72.61450195 354.35839844 C50.5592895 351.13088462 25.9046228 348.73846557 6.3203125 361.78515625 C-5.74776608 371.01045036 -13.06844764 382.59325959 -19.48828125 396.140625 C-21.15404661 399.29137498 -23.09456165 401.82675229 -25.375 404.5625 C-26.12523437 405.47128906 -26.87546875 406.38007813 -27.6484375 407.31640625 C-30 410 -30 410 -32.8515625 412.52734375 C-35.23044475 414.74623142 -35.23044475 414.74623142 -35.09765625 417.31640625 C-33.55600464 421.08549754 -31.5608863 424.46922425 -29.4375 427.9375 C-28.5135778 429.47611531 -27.590409 431.01518327 -26.66796875 432.5546875 C-26.21083496 433.31362305 -25.75370117 434.07255859 -25.28271484 434.85449219 C-23.56179043 437.73296264 -21.90264655 440.64437789 -20.25 443.5625 C-16.50102055 450.14999246 -12.69290839 456.70223727 -8.875 463.25 C-7.99569824 464.75929077 -7.99569824 464.75929077 -7.09863281 466.29907227 C-4.354451 471.00078591 -1.59267798 475.68970692 1.21875 480.3515625 C3.35500222 483.90041769 5.41077427 487.47715222 7.375 491.125 C7.87773438 492.05570312 8.38046875 492.98640625 8.8984375 493.9453125 C9.44371094 494.96238281 9.44371094 494.96238281 10 496 C10.69222656 495.60167969 11.38445313 495.20335937 12.09765625 494.79296875 C25.66442991 487.446534 38.57088545 486.81382729 53.6574707 486.40405273 C79.67840735 485.61226018 101.77654071 480.2410737 122.5390625 463.8203125 C125 462 125 462 128 461 C128 460.34 128 459.68 128 459 C128.66 459 129.32 459 130 459 C130 458.34 130 457.68 130 457 C131.875 454.875 131.875 454.875 134 453 C134.66 453 135.32 453 136 453 C136.32871094 452.21882812 136.32871094 452.21882812 136.6640625 451.421875 C138.52507564 448.04810849 140.94697991 445.23036778 143.375 442.25 C149.24890657 435.20703464 149.24890657 435.20703464 153 427 C152.31507138 424.26451345 151.36548855 421.9193401 150.11328125 419.39453125 C145.88483179 410.29965575 147.70255707 400.07387769 150.8125 390.94921875 C154.24902983 382.41441605 159.9414097 377.82239058 168.23046875 373.9609375 C178.73596418 369.9818649 188.1190007 372.16664735 198.1875 376.3125 C201.82289805 378.49373883 204.87810195 381.1459571 208 384 C207.34 386.64 206.68 389.28 206 392 C203.1768974 390.88786867 200.46781053 389.73390527 197.75 388.375 C191.84369708 386.2093556 187.20571882 386.26476039 181.25 388.25 C174.81007162 391.71765374 172.18934932 394.61958189 169.73046875 401.484375 C168.26762527 406.52218891 168.44793312 410.09795851 170.70703125 414.7578125 C173.43771707 420.74431602 175.41939304 426.97582795 177.487854 433.21237183 C182.74590308 448.99546366 188.64438291 464.15085478 196.67724609 478.75708008 C200.86579548 486.38201579 203.79991395 493.26909872 205 502 C205.15082031 503.03253906 205.30164063 504.06507813 205.45703125 505.12890625 C207.46381607 523.10175931 203.15927097 539.92184048 192.22265625 554.34375 C181.82390445 566.7627092 167.87114277 574.22640223 152 577 C149.27009996 577.1934906 146.73858153 577.15799509 144 577 C146.84179188 574.67489755 149.72826599 572.42299401 152.6875 570.25 C153.26886719 569.82203125 153.85023438 569.3940625 154.44921875 568.953125 C156 568 156 568 158 568 C158 567.34 158 566.68 158 566 C159.66460629 564.60716616 161.32952775 563.21470715 162.99609375 561.82421875 C178.67428036 547.55187343 182.78185777 526.16345957 184 506 C183.30132813 506.5053125 182.60265625 507.010625 181.8828125 507.53125 C180.97273437 508.1809375 180.06265625 508.830625 179.125 509.5 C178.22007812 510.1496875 177.31515625 510.799375 176.3828125 511.46875 C174 513 174 513 172 513 C172 513.66 172 514.32 172 515 C169.86104712 516.48128633 167.74278434 517.81659395 165.5 519.125 C164.82509521 519.52243408 164.15019043 519.91986816 163.45483398 520.3293457 C141.25203009 533.23378038 118.60559268 541.24661905 93.0625 544.5 C81.70149094 545.9610448 71.66093604 549.00792392 61.76953125 554.984375 C60 556 60 556 57 557 C57 557.66 57 558.32 57 559 C55.01310269 560.35278115 53.01254782 561.68568305 51 563 C50.67 563.66 50.34 564.32 50 565 C51.07282356 567.16398598 52.19541583 569.18534169 53.4375 571.25 C54.18648871 572.52456875 54.93517846 573.79931321 55.68359375 575.07421875 C56.07015137 575.72696777 56.45670898 576.3797168 56.85498047 577.05224609 C58.60809194 580.03440458 60.29939042 583.05008821 62 586.0625 C64.61467386 590.66404326 67.33036376 595.19270483 70.125 599.6875 C73.15331644 604.5601742 75.98145871 609.49810005 78.67578125 614.5625 C79.61829649 616.29739532 80.60666843 618.00771127 81.625 619.69921875 C84.31259185 624.19635397 84.5405319 628.82490751 84 634 C82.14231853 639.26343082 79.43208258 641.83422673 75 645 C72.1271898 645.94554336 69.51116452 646.1259423 66.49848104 646.12880117 C65.5942225 646.13207336 64.68996396 646.13534555 63.75830364 646.13871691 C62.76677823 646.13723328 61.77525282 646.13574966 60.75368118 646.13422108 C59.16497038 646.13774942 59.16497038 646.13774942 57.54416442 646.14134905 C53.96524416 646.14805056 50.3863601 646.14758048 46.80743408 646.14717102 C44.22755781 646.15046891 41.64768205 646.15419432 39.06780696 646.1583125 C32.70187885 646.16764393 26.3359577 646.17156146 19.97002361 646.17383147 C12.34715834 646.17679208 4.72430232 646.1854886 -2.89855811 646.19424575 C-21.32344711 646.21509581 -39.74833772 646.22556041 -58.17323577 646.23437535 C-66.8869947 646.23858063 -75.60075295 646.24380275 -84.3145113 646.24905988 C-114.13461336 646.2669496 -143.95471561 646.2819467 -173.77482224 646.28938007 C-175.64711685 646.28985483 -177.51941145 646.29033072 -179.39170606 646.29080774 C-180.32020633 646.29104411 -181.24870659 646.29128049 -182.20534322 646.29152403 C-186.90968194 646.29272524 -191.61402066 646.29394069 -196.31835938 646.29516602 C-197.25195328 646.29540617 -198.18554719 646.29564632 -199.14743182 646.29589374 C-229.42693284 646.30378929 -259.70639472 646.32722665 -289.98587864 646.35972196 C-321.98903499 646.39400448 -353.99216843 646.41372969 -385.99534345 646.41702431 C-389.50716226 646.41744186 -393.01898106 646.41792143 -396.53079987 646.41844749 C-397.39552668 646.41857069 -398.2602535 646.41869388 -399.15118415 646.4188208 C-413.0783052 646.42115467 -427.00538085 646.43682487 -440.9324857 646.45728934 C-454.92578173 646.47752522 -468.91902312 646.48303524 -482.91233107 646.47351871 C-491.22910157 646.4682952 -499.54569039 646.47422122 -507.86243481 646.49605338 C-514.06752366 646.5111135 -520.27242739 646.5053472 -526.47751513 646.49138286 C-528.99165626 646.48899128 -531.50581469 646.49340984 -534.01992926 646.50521151 C-537.43037305 646.52023303 -540.8398963 646.51072439 -544.25031662 646.49498463 C-545.23247737 646.50520683 -546.21463811 646.51542904 -547.22656131 646.52596101 C-553.54978224 646.46201871 -557.54548546 645.22710878 -563 642 C-563 641.34 -563 640.68 -563 640 C-563.66 640 -564.32 640 -565 640 C-567.50291498 634.39347043 -568.87809296 630.05396446 -567 624 C-563.97047987 616.77575969 -559.96706893 610.22105257 -555.69921875 603.67578125 C-553.57376229 600.32879809 -551.71495934 596.87640016 -549.84375 593.3828125 C-543.4161073 581.58972229 -536.5931224 570.00429377 -529.875 558.375 C-529.41391846 557.57578125 -528.95283691 556.7765625 -528.4777832 555.953125 C-528.04941162 555.21320312 -527.62104004 554.47328125 -527.1796875 553.7109375 C-526.80569824 553.06431152 -526.43170898 552.41768555 -526.04638672 551.75146484 C-525.08146363 550.13635559 -524.04361125 548.56541688 -523 547 C-523.17951298 541.27268123 -525.99209681 536.77307205 -528.6875 531.875 C-529.60526089 530.17506946 -530.52193038 528.47454924 -531.4375 526.7734375 C-532.10265625 525.54318848 -532.10265625 525.54318848 -532.78125 524.28808594 C-534.32320702 521.39320989 -535.7612219 518.45332586 -537.1875 515.5 C-540.787946 508.22791275 -545.15111561 501.48159618 -549.9375 494.9375 C-552 492 -552 492 -552 490 C-552.66 490 -553.32 490 -554 490 C-555.47263908 488.31824617 -556.87873465 486.57788753 -558.25 484.8125 C-560.84535444 481.55048748 -563.28200576 478.52118281 -566.5625 475.9375 C-567.366875 475.298125 -568.17125 474.65875 -569 474 C-569 473.34 -569 472.68 -569 472 C-569.99 471.62875 -569.99 471.62875 -571 471.25 C-574.13242603 469.94482249 -577.11839936 468.45646726 -580.1328125 466.90234375 C-585.5158883 464.30089917 -591.57493326 464.06327873 -597.328125 465.63671875 C-599.2429627 466.36364788 -601.12430358 467.17732613 -603 468 C-603.99 468.33 -604.98 468.66 -606 469 C-606.71563184 470.6462361 -607.37553091 472.31706786 -608 474 C-609.01681522 475.57217339 -610.08279066 477.11329248 -611.1875 478.625 C-613.69655908 482.12733608 -616.08821507 485.66110681 -618.375 489.3125 C-621.05250127 493.55187701 -623.79741639 497.73481984 -626.625 501.875 C-627.33914063 502.92429687 -628.05328125 503.97359375 -628.7890625 505.0546875 C-630.99470015 507.99293977 -633.34580983 510.4660644 -636 513 C-636.43957031 513.61359375 -636.87914062 514.2271875 -637.33203125 514.859375 C-640.21435636 516.83042636 -643.42374061 515.78946436 -646.6875 515.25 C-647.37005859 515.14945313 -648.05261719 515.04890625 -648.75585938 514.9453125 C-650.14426801 514.74078772 -651.53196977 514.53141027 -652.91894531 514.31738281 C-677.27987978 510.60208309 -700.0898474 514.5908597 -722.23828125 525.23828125 C-730.01764535 528.6018644 -739.93417902 528.05674485 -747.8125 525.375 C-756.74032382 521.63319149 -763.97056052 516.45264192 -769.13671875 508.1796875 C-771.23448125 502.88307449 -770.83448906 496.0481337 -769.34765625 490.6171875 C-765.50751377 482.21172543 -758.28022816 476.67372341 -750 473 C-739.8784708 469.26999308 -730.7453263 470.78485284 -721 475 C-717.39879047 476.92950712 -713.88334746 478.9686598 -710.3671875 481.046875 C-694.29560478 490.36913876 -677.06949751 495.09537321 -658.5625 495.25 C-657.69729736 495.25942627 -656.83209473 495.26885254 -655.94067383 495.27856445 C-649.70838831 495.27871414 -649.70838831 495.27871414 -644 493 C-642.23663062 490.98851857 -642.23663062 490.98851857 -640.8125 488.4375 C-639.92304687 486.95056641 -639.92304687 486.95056641 -639.015625 485.43359375 C-638.35046875 484.30050781 -637.6853125 483.16742188 -637 482 C-636.20555599 480.71854179 -635.40856065 479.4386627 -634.609375 478.16015625 C-619.85158128 454.25978507 -611.84112808 427.24686462 -605.53735352 400.04931641 C-605 398 -605 398 -604 396 C-598.19540711 395.77351087 -593.56087176 396.36297932 -588.0625 398.1875 C-587.36447266 398.41381104 -586.66644531 398.64012207 -585.94726562 398.87329102 C-577.93129482 401.56423377 -571.38070052 405.47883642 -564.7265625 410.66796875 C-563.20032397 411.84545142 -561.60390929 412.93072714 -560 414 C-560 414.66 -560 415.32 -560 416 C-559.42507813 416.24363281 -558.85015625 416.48726563 -558.2578125 416.73828125 C-534.51015846 430.00902909 -521.83652301 472.27759527 -514.9831543 496.14794922 C-513.12509226 502.78691178 -511.31636367 509.41777927 -509.87109375 516.16015625 C-509.41188269 519.76583335 -509.41188269 519.76583335 -508 521 C-507.51273437 520.1234375 -507.02546875 519.246875 -506.5234375 518.34375 C-501.77659315 509.83975086 -496.92038091 501.40479637 -492 493 C-487.69420177 485.64404684 -483.42959576 478.27113531 -479.27490234 470.82885742 C-476.27384212 465.46160362 -473.2073159 460.13345993 -470.125 454.8125 C-469.66005127 454.00965576 -469.19510254 453.20681152 -468.71606445 452.37963867 C-466.50503377 448.56934573 -464.28103928 444.76900199 -462 441 C-478.46676032 445.92110079 -494.5795399 453.09587617 -508 464 C-508.66 464 -509.32 464 -510 464 C-510 464.66 -510 465.32 -510 466 C-513 467 -513 467 -515.015625 465.99609375 C-528.04697987 456.90604027 -528.04697987 456.90604027 -530 453 C-530.6685399 449.20147784 -531.04717531 445.5585865 -528.82421875 442.25 C-516.65094446 431.09358633 -494.92266008 427.53086004 -479 427 C-476.87766824 427.12504347 -474.75652364 427.27125091 -472.63671875 427.43359375 C-462.66325788 428.09086672 -462.66325788 428.09086672 -453 426 C-447.35587752 420.92203563 -444.78687986 413.6126772 -442.09375 406.6796875 C-440.6837533 403.22519558 -438.92888422 400.36291827 -436.875 397.25 C-433.31662648 391.60365525 -430.07273282 385.81995413 -426.87744141 379.96337891 C-424.69717175 375.98550607 -422.45617056 372.06962532 -420.0703125 368.2109375 C-419.59835449 367.44104492 -419.12639648 366.67115234 -418.64013672 365.87792969 C-417.73071095 364.4040658 -416.80829829 362.93811708 -415.87158203 361.48144531 C-413.49859915 357.88884882 -413.49859915 357.88884882 -413.49609375 353.78125 C-434.910953 328.41715697 -469.23349246 311.10519706 -502 307 C-506.45806503 306.81466261 -510.91465915 306.81418305 -515.37597656 306.81469727 C-517.4670115 306.81253413 -519.55749719 306.79440366 -521.6484375 306.77539062 C-530.93115457 306.73802654 -539.8284355 307.53689341 -549 309 C-548.7733667 308.44763672 -548.5467334 307.89527344 -548.31323242 307.32617188 C-538.52749548 283.23973906 -533.89821488 260.23039239 -543.75 235.25 C-546.61809093 228.46891063 -550.07973434 222.22835106 -554 216 C-554.14695312 216.845625 -554.29390625 217.69125 -554.4453125 218.5625 C-556.23172492 227.59722948 -558.80277703 233.01801923 -565.4375 239.3125 C-573.1502173 244.39160652 -579.80584618 244.92580021 -589 244 C-595.71405594 242.2892069 -600.14057538 237.56451433 -604 232 C-607.73331268 225.52627695 -608.12428372 217.98519601 -606.49609375 210.765625 C-603.29913884 201.33917511 -597.79198613 196.44069808 -589 192 C-582.49359318 189.83119773 -572.86560109 189.64991825 -566.5 192.5 C-563.60060555 194.23839496 -561.78285626 196.36976357 -559.6875 199 C-556.22275144 203.29120235 -552.74580848 204.52570129 -547.57421875 206.1484375 C-544.23627351 207.25264397 -541.77550827 208.85528906 -539 211 C-538.44957031 211.40734375 -537.89914062 211.8146875 -537.33203125 212.234375 C-527.47899336 219.97760124 -521.01628938 231.93685679 -519.1875 244.3125 C-519.125625 245.199375 -519.06375 246.08625 -519 247 C-517.27910156 247.16822266 -517.27910156 247.16822266 -515.5234375 247.33984375 C-511.02045445 247.90840222 -506.90968034 249.09568112 -502.625 250.5625 C-501.85188477 250.82498535 -501.07876953 251.0874707 -500.28222656 251.35791016 C-474.53188541 260.32835856 -452.58015457 274.07824244 -433 293 C-432.20078125 293.75925781 -431.4015625 294.51851563 -430.578125 295.30078125 C-419.2888087 306.25920379 -408.53822273 319.55263687 -402 334 C-402 334.66 -402 335.32 -402 336 C-401.34 336 -400.68 336 -400 336 C-399.79890625 335.23300781 -399.5978125 334.46601563 -399.390625 333.67578125 C-397.42794808 328.48791894 -394.59206906 323.9382323 -391.75 319.1875 C-386.58733058 310.45993805 -381.54655093 301.67825835 -376.625 292.8125 C-372.60580195 285.58626777 -368.51188755 278.4676161 -364.109375 271.46875 C-360.54916415 265.70729546 -357.30550722 259.75398827 -353.98803711 253.85107422 C-350.53473943 247.70845196 -347.04509515 241.5900742 -343.5 235.5 C-337.23147538 224.7244412 -331.11516956 213.86310854 -325 203 C-326.10996338 203.02094727 -327.21992676 203.04189453 -328.36352539 203.06347656 C-364.59963048 203.68492129 -401.20601457 202.70196682 -435 188 C-435.99507568 187.56929199 -435.99507568 187.56929199 -437.01025391 187.12988281 C-455.45753756 178.96346148 -472.61408466 165.8932676 -481 147 C-481.6875 143.13671875 -481.6875 143.13671875 -482 140 C-481.01902344 139.5153125 -480.03804688 139.030625 -479.02734375 138.53125 C-475.41142656 136.739115 -471.80431631 134.92996557 -468.20166016 133.11132812 C-466.82226659 132.41505406 -465.44188434 131.72073146 -464.06005859 131.02929688 C-439.30082093 118.58029667 -416.84131368 101.69939953 -399.1640625 80.27636719 C-398.77992188 79.85516602 -398.39578125 79.43396484 -398 79 C-397.67 79 -397.34 79 -397 79 C-394.93011201 90.29029813 -397.79226781 99.02158797 -404.1640625 108.41796875 C-405.32275921 110.04754008 -406.48389186 111.67538461 -407.6484375 113.30078125 C-412.10000073 119.66177135 -415.73238713 126.36137697 -416.1875 134.25 C-408.8501723 151.24170625 -380.6765357 163.49052413 -364.55175781 170.00732422 C-347.75998088 176.53960177 -330.57113268 181.10924919 -313 185 C-312.70609375 184.06542969 -312.4121875 183.13085938 -312.109375 182.16796875 C-311.10568821 179.30180683 -309.89973124 177.24001488 -308.171875 174.7734375 C-306.81512128 172.72021687 -305.66328329 170.60668119 -304.5 168.4375 C-297.56006392 155.55655804 -290.16412487 142.91766565 -282.72412109 130.32055664 C-276.62856137 119.99664447 -270.61960656 109.62067384 -264.69189453 99.19946289 C-263.72068058 97.49570716 -262.74133921 95.79659235 -261.76171875 94.09765625 C-260.62728954 92.10297252 -259.52300251 90.0906858 -258.45703125 88.05859375 C-255.73838123 83.05132146 -253.47854209 79.71386662 -248.0703125 77.5546875 C-241.6299908 75.82916735 -237.24405879 76.92636744 -231.46875 80.125 C-230.9840625 80.41375 -230.499375 80.7025 -230 81 C-230 81.66 -230 82.32 -230 83 C-229.34 83 -228.68 83 -228 83 C-227.63003906 83.77214844 -227.26007812 84.54429688 -226.87890625 85.33984375 C-223.96403289 91.17130208 -220.56939994 96.75470069 -217.29492188 102.38867188 C-216.77349609 103.29294922 -216.25207031 104.19722656 -215.71484375 105.12890625 C-215.24167725 105.94431885 -214.76851074 106.75973145 -214.28100586 107.59985352 C-212.99252046 110.01401397 -211.96730664 112.44222621 -211 115 C-172.18096631 115.68809304 -128.30691242 113.79181595 -98 86 C-97.19175781 85.14535156 -97.19175781 85.14535156 -96.3671875 84.2734375 C-95 83 -95 83 -93 83 C-93 82.34 -93 81.68 -93 81 C-91.86561855 79.83124335 -90.72441514 78.66853642 -89.5546875 77.53515625 C-81.63268855 69.7126799 -76.476516 61.09146273 -71.625 51.125 C-68.28611368 44.32081073 -64.352834 38.21404578 -60 32 C-59.34 31.01 -58.68 30.02 -58 29 C-57.34 29 -56.68 29 -56 29 C-55.63068359 28.14341797 -55.63068359 28.14341797 -55.25390625 27.26953125 C-48.60721053 15.23921907 -33.56593632 6.30031006 -20.98828125 1.9609375 C-13.94066344 -0.01055297 -7.28815432 -0.348901 0 0 Z M-208 119 C-203.52531803 127.22233228 -199.02671168 135.43119461 -194.5 143.625 C-194.18047363 144.20733398 -193.86094727 144.78966797 -193.53173828 145.38964844 C-190.06408982 151.70753906 -186.51019281 157.8450083 -182.43920898 163.79125977 C-180.29711346 167.07871324 -178.47918596 170.52096009 -176.62939453 173.97900391 C-173.83812865 179.15417982 -170.9051668 184.2494878 -167.98608398 189.35327148 C-166.93339821 191.19467503 -165.88361746 193.03771441 -164.83398438 194.88085938 C-161.34172772 201.00009204 -157.79357633 207.06190684 -154 213 C-153.34 212.67 -152.68 212.34 -152 212 C-151.37481767 209.48730547 -150.87000005 207.04681801 -150.4375 204.5 C-150.30819092 203.76676514 -150.17888184 203.03353027 -150.0456543 202.27807617 C-146.70408952 182.97909651 -145.89722249 161.58371066 -157.6875 144.75 C-158.7557532 143.46917248 -159.86299205 142.22020365 -161 141 C-161.67417969 140.27296875 -162.34835937 139.5459375 -163.04296875 138.796875 C-173.94953852 128.05472588 -192.43013363 119 -208 119 Z M-242 162 C-243.23039906 163.84713275 -244.40701841 165.73010065 -245.5625 167.625 C-245.9145752 168.20169434 -246.26665039 168.77838867 -246.62939453 169.37255859 C-249.97464517 174.8866591 -253.16761801 180.48442236 -256.3359375 186.1015625 C-257.48838372 188.10887492 -258.71608346 190.07412519 -260 192 C-260 192.99 -260 193.98 -260 195 C-261.30931986 196.35692191 -262.64628419 197.6873656 -264 199 C-265.53044333 201.30006027 -265.53044333 201.30006027 -266.8828125 203.82421875 C-267.40520508 204.76193115 -267.92759766 205.69964355 -268.46582031 206.66577148 C-269.01334961 207.66294189 -269.56087891 208.6601123 -270.125 209.6875 C-271.2878399 211.77672262 -272.45191251 213.86525958 -273.6171875 215.953125 C-274.19049805 216.98244141 -274.76380859 218.01175781 -275.35449219 219.07226562 C-277.59655817 223.06141329 -279.91214386 227.00395687 -282.25 230.9375 C-285.40298076 236.25445177 -288.4866567 241.60266167 -291.5 247 C-295.02735695 253.31773571 -298.66309443 259.56474875 -302.34423828 265.79394531 C-305.90475894 271.82325904 -309.39082968 277.89279863 -312.8515625 283.97998047 C-319.26036472 295.2526058 -325.68176795 306.51498343 -332.27636719 317.68017578 C-338.60636851 328.4016472 -344.83091302 339.18521283 -351 350 C-354.02434444 355.30178601 -357.06845104 360.59171701 -360.125 365.875 C-360.79946167 367.04397827 -360.79946167 367.04397827 -361.48754883 368.23657227 C-364.23078899 372.9812653 -367.0092027 377.70299363 -369.81640625 382.41015625 C-370.45884277 383.49377441 -371.1012793 384.57739258 -371.76318359 385.69384766 C-373.02850086 387.82668262 -374.30077572 389.95540799 -375.58056641 392.07958984 C-376.15597168 393.05234863 -376.73137695 394.02510742 -377.32421875 395.02734375 C-377.84072998 395.89093506 -378.35724121 396.75452637 -378.8894043 397.64428711 C-380.28428898 400.16894894 -380.28428898 400.16894894 -380 404 C-380.66 404 -381.32 404 -382 404 C-383.33071003 405.77794153 -383.33071003 405.77794153 -384.6328125 408.13671875 C-385.16422852 409.05243652 -385.69564453 409.9681543 -386.24316406 410.91162109 C-386.82291992 411.93078613 -387.40267578 412.94995117 -388 414 C-388.61327148 415.06943848 -389.22654297 416.13887695 -389.85839844 417.24072266 C-392.21201931 421.35690206 -394.55425754 425.47944244 -396.89013672 429.60571289 C-400.53439558 436.03898125 -404.22807624 442.41877634 -408.1328125 448.69921875 C-411.10546898 453.48603796 -413.8714787 458.33724788 -416.53417969 463.30175781 C-419.11806162 468.05809744 -421.88191816 472.70928404 -424.625 477.375 C-429.12622014 485.05942973 -433.59586475 492.75951124 -438 500.5 C-442.34473333 508.13449445 -446.75077357 515.73111308 -451.1875 523.3125 C-455.01072844 529.84659516 -458.81360891 536.38763931 -462.5 543 C-466.20957311 549.65249527 -470.03193365 556.23631165 -473.875 562.8125 C-474.46941895 563.83037598 -475.06383789 564.84825195 -475.67626953 565.89697266 C-478.55961562 570.83188507 -481.44850871 575.76346431 -484.34375 580.69140625 C-485.35430688 582.41918883 -486.36473103 584.14704906 -487.375 585.875 C-488.08052002 587.06959839 -488.08052002 587.06959839 -488.80029297 588.28833008 C-491.15043212 591.90291107 -491.15043212 591.90291107 -492 596 C-327 596 -162 596 8 596 C6.65751846 591.97255539 5.73522625 589.22592515 3.6796875 585.75 C3.23101318 584.98413574 2.78233887 584.21827148 2.32006836 583.42919922 C1.8431958 582.62756348 1.36632324 581.82592773 0.875 581 C-0.12666134 579.29448177 -1.12796123 577.58875122 -2.12890625 575.8828125 C-2.6202002 575.04911133 -3.11149414 574.21541016 -3.61767578 573.35644531 C-5.46212817 570.21221104 -7.26383207 567.04565799 -9.0625 563.875 C-11.85575318 558.97554382 -14.69466424 554.10610931 -17.5625 549.25 C-26.81161805 533.57525549 -35.8818735 517.79568401 -44.8125 501.9375 C-49.64895433 493.35137791 -54.59041283 484.83609103 -59.60888672 476.35546875 C-67.09322757 463.68279052 -74.51127463 450.98146594 -81.6003418 438.08300781 C-83.89905242 433.92041375 -86.28757337 429.84398368 -88.8125 425.8125 C-94.36601241 416.93589193 -99.39687755 407.75517153 -104.52246094 398.62744141 C-109.94778554 388.97983013 -115.4917455 379.40030863 -121.05712891 369.83300781 C-123.27636885 366.01066653 -125.46425272 362.17568461 -127.59765625 358.3046875 C-129.54699301 354.77995901 -131.60277952 351.34644192 -133.75 347.9375 C-136.65826487 343.24535519 -139.44051572 338.51059678 -142.125 333.6875 C-145.93434577 326.8443336 -149.85566713 320.07139573 -153.8125 313.3125 C-158.31041561 305.62631862 -162.77836651 297.92497659 -167.1875 290.1875 C-173.88705431 278.43277747 -180.65382627 266.71818107 -187.484375 255.0390625 C-192.89769089 245.78189868 -198.30454185 236.52705738 -203.52563477 227.15991211 C-207.55757931 219.95347028 -211.74508631 212.83771017 -215.91357422 205.7097168 C-219.94020866 198.822742 -223.93086751 191.91820948 -227.87207031 184.98193359 C-230.4080634 180.52583145 -232.9554825 176.07623795 -235.5 171.625 C-236.55211704 169.78387343 -237.60420318 167.9427292 -238.65625 166.1015625 C-239.10806641 165.31088379 -239.55988281 164.52020508 -240.02539062 163.70556641 C-240.50782227 162.86131104 -240.50782227 162.86131104 -241 162 C-241.33 162 -241.66 162 -242 162 Z M-99 307 C-95.40782035 316.3795802 -89.91038347 324.91473808 -84.81005859 333.53491211 C-82.20590655 337.93809353 -79.64494488 342.36059738 -77.125 346.8125 C-73.80169826 352.66205143 -70.35175264 358.42801486 -66.875 364.1875 C-63.23989397 370.21198293 -59.69471681 376.25359237 -56.37109375 382.45703125 C-54.70052906 385.55542901 -52.98840814 388.62662186 -51.25 391.6875 C-50.67765625 392.70199219 -50.1053125 393.71648437 -49.515625 394.76171875 C-49.01546875 395.50035156 -48.5153125 396.23898437 -48 397 C-47.34 397 -46.68 397 -46 397 C-45.18243762 394.93950145 -44.37115266 392.87651147 -43.5625 390.8125 C-43.11003906 389.66394531 -42.65757812 388.51539063 -42.19140625 387.33203125 C-38.02790396 375.68787566 -39.64258802 363.88779261 -44.8125 352.8125 C-47.10452844 348.54218086 -49.96377955 344.76491336 -53 341 C-53.7115625 340.1028125 -53.7115625 340.1028125 -54.4375 339.1875 C-63.18866217 328.53391127 -74.81198886 320.91122679 -86.375 313.625 C-87.05304687 313.19598389 -87.73109375 312.76696777 -88.4296875 312.32495117 C-91.8654302 310.18996771 -95.16220014 308.34841617 -99 307 Z M21 515 C22.31204275 518.46363896 23.82944853 521.62915467 25.6796875 524.8359375 C26.19660156 525.73570312 26.71351563 526.63546875 27.24609375 527.5625 C28.05240234 528.9546875 28.05240234 528.9546875 28.875 530.375 C29.40480469 531.29539062 29.93460938 532.21578125 30.48046875 533.1640625 C31.51143716 534.95482649 32.54361826 536.74489299 33.57714844 538.53417969 C35.39461792 541.683878 37.19862843 544.84107304 39 548 C42.34321955 546.88559348 43.06019619 546.02527657 45.25 543.375 C50.09096687 537.67614027 55.14276899 532.65133051 61 528 C62.43735246 525.12529507 62.38172649 523.18105412 62 520 C52.05397309 509.76144288 33.27353108 508.20057903 21 515 Z " fill="#FBFBFB" transform="translate(795,0)"/>
<path d="M0 0 C14.29986147 13.68935835 20.50065218 30.37872435 21 49.875 C20.65741625 61.93394801 17.77950212 70.97667016 10.625 80.6875 C9.903125 81.739375 9.18125 82.79125 8.4375 83.875 C-6.26674208 98.57924208 -28.81896946 104.7475565 -49.1862793 104.95556641 C-52.5873061 104.93037109 -55.9770374 104.8352375 -59.375 104.6875 C-59.375 105.3475 -59.375 106.0075 -59.375 106.6875 C-61.025 106.6875 -62.675 106.6875 -64.375 106.6875 C-64.4678125 107.863125 -64.4678125 107.863125 -64.5625 109.0625 C-64.830625 109.92875 -65.09875 110.795 -65.375 111.6875 C-67.85 112.6775 -67.85 112.6775 -70.375 113.6875 C-70.375 109.7275 -70.375 105.7675 -70.375 101.6875 C-72.025 101.3575 -73.675 101.0275 -75.375 100.6875 C-86.53792254 94.98770386 -92.47382638 86.37490032 -96.375 74.6875 C-97.40231343 70.70586286 -97.47896285 66.97982236 -97.4375 62.875 C-97.42847656 61.71355469 -97.41945312 60.55210937 -97.41015625 59.35546875 C-97.39855469 58.47503906 -97.38695312 57.59460938 -97.375 56.6875 C-95.89 56.1925 -95.89 56.1925 -94.375 55.6875 C-94.0346875 57.0178125 -94.0346875 57.0178125 -93.6875 58.375 C-90.44745381 66.55225944 -83.06920854 69.34311224 -75.375 72.6875 C-74.04650461 73.03962054 -72.71380593 73.3768755 -71.375 73.6875 C-71.43558594 72.99849609 -71.49617188 72.30949219 -71.55859375 71.59960938 C-72.53023021 59.85775646 -72.98595228 48.09456509 -73.5 36.32568359 C-73.96403992 25.76333745 -74.44872085 15.22146186 -75.375 4.6875 C-79.14659109 4.96983598 -82.91706716 5.26512625 -86.6875 5.5625 C-87.74001953 5.64113281 -88.79253906 5.71976563 -89.87695312 5.80078125 C-96.0722336 6.29640369 -102.05124614 7.08725662 -108.12792969 8.40551758 C-110.375 8.6875 -110.375 8.6875 -113.3125 7.5 C-118.4107583 0.54782959 -120.64177812 -7.75402346 -119.375 -16.3125 C-118.07767534 -19.58995178 -117.34304077 -20.84907623 -114.171875 -22.3671875 C-79.89062827 -33.95386586 -27.24155348 -23.29048848 0 0 Z M-47.375 8.6875 C-47.66655451 14.69305775 -47.95097234 20.69890172 -48.22949219 26.70507812 C-48.32465709 28.7373917 -48.42158981 30.76962346 -48.52050781 32.80175781 C-49.21530595 47.1089277 -49.50174355 61.3637181 -49.375 75.6875 C-32.8491936 75.91037283 -15.81240122 67.9928288 -3.18359375 57.46484375 C0.82630102 53.52423442 3.81234495 49.42190333 4.25 43.6875 C3.8103385 37.47117489 -0.00304405 32.66442103 -4.5625 28.6875 C-7.07146687 26.4943254 -7.07146687 26.4943254 -9.375 26.6875 C-9.375 26.0275 -9.375 25.3675 -9.375 24.6875 C-25.1814258 15.26309655 -25.1814258 15.26309655 -42.56494141 9.62670898 C-43.46564362 9.44986069 -44.36634583 9.27301239 -45.29434204 9.09080505 C-45.98095917 8.95771439 -46.66757629 8.82462372 -47.375 8.6875 Z M-54.375 60.6875 C-54.705 65.9675 -55.035 71.2475 -55.375 76.6875 C-54.715 76.6875 -54.055 76.6875 -53.375 76.6875 C-53.375 71.4075 -53.375 66.1275 -53.375 60.6875 C-53.705 60.6875 -54.035 60.6875 -54.375 60.6875 Z " fill="#FAFAFA" transform="translate(345.375,720.3125)"/>
<path d="M0 0 C3.74105163 -0.3026324 6.11455024 -0.34178663 9.1953125 1.953125 C13.26845807 6.38045715 16.15343104 10.6423173 16.03515625 16.83203125 C15.42790571 24.81971138 15.42790571 24.81971138 13.08203125 28.37890625 C11.04858398 29.01318359 11.04858398 29.01318359 8.515625 29.21484375 C7.5666333 29.30652832 6.6176416 29.39821289 5.63989258 29.49267578 C4.61017334 29.57888184 3.5804541 29.66508789 2.51953125 29.75390625 C-9.77571452 31.01106586 -21.49388181 33.64005506 -33.4362793 36.76220703 C-35.91865042 37.37907565 -38.40625999 37.89686966 -40.91796875 38.37890625 C-40.91796875 39.03890625 -40.91796875 39.69890625 -40.91796875 40.37890625 C-40.34433594 40.51425781 -39.77070312 40.64960937 -39.1796875 40.7890625 C-20.33213405 45.56530139 -1.88991724 52.7381164 13.08203125 65.37890625 C13.94828125 65.97703125 14.81453125 66.57515625 15.70703125 67.19140625 C23.02403521 73.930752 27.61047202 82.14901102 28.359375 92.04296875 C28.86432753 106.14055878 26.60001318 119.14678096 16.8203125 129.85546875 C4.08851998 142.12755762 -11.56995015 142.99389735 -28.453125 142.6875 C-41.54074939 142.15407915 -49.83701379 135.809602 -58.66796875 126.62890625 C-67.38302941 116.66448375 -69.54207624 106.43949438 -69.06738281 93.53564453 C-68.81094882 89.834112 -68.21953124 86.21186457 -67.54296875 82.56640625 C-67.35395996 81.53531738 -67.35395996 81.53531738 -67.16113281 80.48339844 C-66.18237644 75.64331394 -66.18237644 75.64331394 -63.91796875 73.37890625 C-63.58796875 72.38890625 -63.25796875 71.39890625 -62.91796875 70.37890625 C-60.85546875 69.69140625 -60.85546875 69.69140625 -58.91796875 69.37890625 C-58.88058594 70.35730469 -58.84320312 71.33570313 -58.8046875 72.34375 C-58.15226779 85.35376664 -56.08301254 94.21386246 -46.66796875 103.62890625 C-33.93276451 111.73312713 -21.22195696 111.1737389 -6.91796875 108.37890625 C-0.74710187 106.94638358 3.96263734 105.09046684 9.08203125 101.37890625 C9.74203125 101.37890625 10.40203125 101.37890625 11.08203125 101.37890625 C9.81486516 96.31024189 8.33065851 94.35005511 4.08203125 91.37890625 C1.67115556 90.16235838 -0.68792741 89.05228736 -3.16796875 88.00390625 C-3.86760742 87.70282959 -4.56724609 87.40175293 -5.28808594 87.09155273 C-10.1864626 85.01928849 -15.14160839 83.17673967 -20.16796875 81.44140625 C-60.81045207 67.40342627 -60.81045207 67.40342627 -69.109375 53.36328125 C-73.07051523 43.77128249 -70.58152956 32.23273869 -67.05859375 22.8671875 C-63.59940205 15.32093711 -56.2193695 12.4617199 -48.91796875 9.37890625 C-35.04549989 4.36120475 -19.74818548 1.8985895 -5.09228516 0.57739258 C-3.39105398 0.42209267 -1.69408201 0.2199812 0 0 Z " fill="#F9F9F9" transform="translate(628.91796875,691.62109375)"/>
<path d="M0 0 C0.18359375 3.36328125 0.18359375 3.36328125 0 7 C-2.9375 9.1875 -2.9375 9.1875 -6 11 C-6.35169068 12.32860925 -6.68770276 13.66158328 -7 15 C-8.65204456 15.70211894 -10.31923769 16.36971413 -12 17 C-12.495 18.485 -12.495 18.485 -13 20 C-18.01288871 22.62030952 -22.86558572 23.73546914 -28.41796875 24.60546875 C-29.19763504 24.73440018 -29.97730133 24.8633316 -30.78059387 24.99617004 C-32.41611346 25.26491691 -34.05233857 25.52940209 -35.68920898 25.78979492 C-38.19223578 26.18825389 -40.6928365 26.59981757 -43.19335938 27.01367188 C-44.78893817 27.27420006 -46.38463748 27.53399155 -47.98046875 27.79296875 C-48.72532028 27.91480026 -49.47017181 28.03663177 -50.2375946 28.16215515 C-53.55669606 28.68743387 -56.62785876 29 -60 29 C-60.33 35.27 -60.66 41.54 -61 48 C-59.1025 47.690625 -57.205 47.38125 -55.25 47.0625 C-40.80431719 44.88406013 -26.58159229 44.88503111 -12 45 C-13.56284832 54.61228831 -13.56284832 54.61228831 -18 58.0625 C-18.70125 58.63097656 -19.4025 59.19945312 -20.125 59.78515625 C-22 61 -22 61 -24 61 C-24 61.99 -24 62.98 -24 64 C-26.64 64.33 -29.28 64.66 -32 65 C-32 65.99 -32 66.98 -32 68 C-38.0866248 71.10073339 -44.23258103 73.01424665 -50.8125 74.75 C-51.64885986 74.97260498 -52.48521973 75.19520996 -53.34692383 75.42456055 C-57.10266233 76.38932699 -60.07462963 77 -64 77 C-64.05534912 77.55461914 -64.11069824 78.10923828 -64.16772461 78.68066406 C-64.42128107 81.2040917 -64.67934505 83.72703883 -64.9375 86.25 C-65.02451172 87.12269531 -65.11152344 87.99539063 -65.20117188 88.89453125 C-65.28818359 89.73886719 -65.37519531 90.58320312 -65.46484375 91.453125 C-65.543396 92.22817383 -65.62194824 93.00322266 -65.70288086 93.80175781 C-65.99002914 95.92623038 -66.43794772 97.93296525 -67 100 C-65.89527344 99.62488281 -64.79054688 99.24976563 -63.65234375 98.86328125 C-50.94212184 94.64501746 -38.14924094 91.5186357 -25 89 C-23.70835937 88.75121094 -22.41671875 88.50242187 -21.0859375 88.24609375 C8.07807167 83.53903584 8.07807167 83.53903584 17 88 C15.47282845 92.58151466 13.40785989 95.79607006 9 98 C9.66 98.66 10.32 99.32 11 100 C10.33613281 100.37511719 9.67226563 100.75023437 8.98828125 101.13671875 C8.10527344 101.64847656 7.22226562 102.16023437 6.3125 102.6875 C5.00732422 103.43580078 5.00732422 103.43580078 3.67578125 104.19921875 C0.88675222 105.90516691 0.88675222 105.90516691 -1.19140625 108.54296875 C-5.18042353 112.03266537 -9.14434316 112.56798762 -14.25 113.625 C-24.73618699 116.01884458 -34.87748905 119.07858625 -45.0625 122.5 C-45.74566284 122.72729797 -46.42882568 122.95459595 -47.13269043 123.18878174 C-59.6581811 127.36482385 -72.29161578 131.66795406 -83.8515625 138.1171875 C-86.4382532 139.18008222 -88.22794058 139.33065415 -91 139 C-96.14054207 134.2266395 -98.53605583 128.52345567 -99.25 121.5625 C-99.35604986 117.53260533 -99.36641739 114.41021479 -97 111 C-95.35249596 110.28729203 -93.68611967 109.61581059 -92 109 C-91.97661859 98.41045002 -91.95895554 87.82090638 -91.94818783 77.23133564 C-91.94301457 72.31184781 -91.93602064 67.39237791 -91.92456055 62.47290039 C-91.91353069 57.70716875 -91.90768159 52.94145412 -91.90512276 48.17571068 C-91.90330408 46.37606731 -91.89975501 44.57642464 -91.89426994 42.77678871 C-91.85642973 29.821902 -92.28138509 16.93491568 -93 4 C-86.40374721 2.06825754 -80.34187969 1.32066246 -73.5 0.875 C-72.21730225 0.79008301 -70.93460449 0.70516602 -69.61303711 0.61767578 C-46.46186409 -0.75405839 -23.17932425 -0.16598466 0 0 Z " fill="#FAFAFA" transform="translate(540,694)"/>
<path d="M0 0 C0.495 0.495 0.495 0.495 1 1 C2.89929551 1.21215377 4.80588721 1.35930699 6.71313477 1.48071289 C7.9343251 1.56072037 9.15551544 1.64072784 10.41371155 1.72315979 C11.75627033 1.80642397 13.09883539 1.88958705 14.44140625 1.97265625 C15.80763819 2.06050319 17.17384384 2.14875996 18.5400238 2.2374115 C22.14174537 2.47001643 25.74379859 2.69703167 29.34594727 2.9229126 C33.01925807 3.15423934 36.69223048 3.39081214 40.36523438 3.62695312 C47.57650076 4.08979126 54.78812528 4.546729 62 5 C61.86701094 6.44639714 61.7261821 7.89207494 61.58203125 9.33740234 C61.5044458 10.14253265 61.42686035 10.94766296 61.34692383 11.77719116 C60.21825606 19.00878633 52.75605726 24.36181244 47.30859375 28.58984375 C42.204768 31.70740906 37.27258106 32.31092764 31.375 32.625 C30.33472656 32.68192017 30.33472656 32.68192017 29.2734375 32.73999023 C23.18099372 33.04867219 17.09903456 33.08371733 11 33 C11.02175293 34.0923999 11.04350586 35.1847998 11.06591797 36.31030273 C11.23097036 48.60231365 10.48668351 60.71250104 9.40087891 72.95239258 C9.12504253 76.06202059 8.86033111 79.17243824 8.59765625 82.28320312 C7.80405572 91.58113318 6.95721573 100.87483013 5.98828125 110.15625 C5.9173526 110.87712296 5.84642395 111.59799591 5.77334595 112.3407135 C4.99147623 119.51967456 3.13736218 124.94662739 -2 130 C-2.33 130.70125 -2.66 131.4025 -3 132.125 C-4 134 -4 134 -7 135 C-7.33 135.99 -7.66 136.98 -8 138 C-9.62332967 139.38576923 -11.28724465 140.72641268 -13 142 C-13.66 141.67 -14.32 141.34 -15 141 C-15.66 141.99 -16.32 142.98 -17 144 C-17.81601785 141.12099421 -18.14255851 138.52140575 -18.19618225 135.53277588 C-18.21438522 134.64379105 -18.2325882 133.75480621 -18.25134277 132.83888245 C-18.26644897 131.871436 -18.28155518 130.90398956 -18.29711914 129.90722656 C-18.31677231 128.88251755 -18.33642548 127.85780853 -18.35667419 126.80204773 C-18.42054633 123.41497184 -18.4778754 120.02781824 -18.53515625 116.640625 C-18.57816504 114.29220858 -18.6215816 111.94379959 -18.66539001 109.59539795 C-18.77960142 103.41411052 -18.88826592 97.23273748 -18.99578857 91.05133057 C-19.10648263 84.74379493 -19.22240439 78.43635564 -19.33789062 72.12890625 C-19.56371994 59.752693 -19.78369137 47.37638305 -20 35 C-20.94097031 35.0690152 -21.88194061 35.1380304 -22.85142517 35.20913696 C-24.0966243 35.29948212 -25.34182343 35.38982727 -26.62475586 35.48291016 C-27.85447617 35.57255035 -29.08419647 35.66219055 -30.35118103 35.75454712 C-35.42302484 36.09572564 -40.4804583 36.29576193 -45.5625 36.375 C-46.50673828 36.41238281 -47.45097656 36.44976563 -48.42382812 36.48828125 C-55.25066759 36.57500186 -55.25066759 36.57500186 -59.0390625 33.66796875 C-64.17795087 26.67621426 -64.88217823 20.5664149 -64 12 C-63.02320121 8.38083526 -61.68456446 5.68456446 -59 3 C-55.33756177 1.68895561 -51.48979779 1.72772771 -47.63671875 1.53515625 C-46.1777219 1.45661167 -44.71873789 1.37782806 -43.25976562 1.29882812 C-40.97580816 1.1795224 -38.69178518 1.06271061 -36.4074707 0.95043945 C-34.19178329 0.83995466 -31.97681241 0.71939701 -29.76171875 0.59765625 C-29.08856125 0.56736832 -28.41540375 0.53708038 -27.72184753 0.50587463 C-2.63739922 -0.91501605 -2.63739922 -0.91501605 0 0 Z " fill="#FBFBFB" transform="translate(719,692)"/>
<path d="M0 0 C2.47347155 0.47508752 4.94715936 0.86704003 7.4375 1.2421875 C10.98916645 2.29252788 13.1954526 3.55430985 16 6 C16.96408463 8.91705349 17.5117486 11.31323078 17.9375 14.3125 C18.24806809 16.11667213 18.56350892 17.92000963 18.8828125 19.72265625 C19.05458008 20.71797363 19.22634766 21.71329102 19.40332031 22.73876953 C20.53873751 28.94453996 21.923815 35.0967926 23.3125 41.25 C23.46176941 41.91305145 23.61103882 42.57610291 23.76483154 43.25924683 C27.57857262 60.10927602 32.17484546 76.72095316 38.22290039 92.91552734 C39.2821632 95.77200728 40 97.92285884 40 101 C39.37351562 100.9278125 38.74703125 100.855625 38.1015625 100.78125 C37.28429687 100.6884375 36.46703125 100.595625 35.625 100.5 C34.81289063 100.4071875 34.00078125 100.314375 33.1640625 100.21875 C31.03087175 99.96647649 31.03087175 99.96647649 29 100 C29 99.34 29 98.68 29 98 C28.34 98 27.68 98 27 98 C26.34 99.98 25.68 101.96 25 104 C24.29359375 103.79503906 23.5871875 103.59007812 22.859375 103.37890625 C4.16707247 98.4710027 -16.15305454 99.07355303 -35 103 C-36.5163947 103.15598664 -38.03893503 103.26215611 -39.5625 103.3125 C-40.30628906 103.34988281 -41.05007813 103.38726563 -41.81640625 103.42578125 C-44.96874345 102.81110369 -46.0506111 101.51587798 -48 99 C-49.01171875 96.08984375 -49.01171875 96.08984375 -49.6875 92.9375 C-49.91824219 91.89464844 -50.14898438 90.85179687 -50.38671875 89.77734375 C-50.58910156 88.86082031 -50.79148437 87.94429687 -51 87 C-51.33 86.01 -51.66 85.02 -52 84 C-51.08323283 81.33112188 -50.09226636 78.78369231 -49 76.1875 C-39.8053703 53.34346918 -33.48112215 29.52470101 -29.84863281 5.16503906 C-29.0896243 0.0896243 -29.0896243 0.0896243 -28 -1 C-18.57537236 -2.41369415 -9.06714032 -3.24086541 0 0 Z M-7 47 C-8.67275302 50.62222211 -10.33716251 54.2482166 -12 57.875 C-12.47695313 58.90753906 -12.95390625 59.94007813 -13.4453125 61.00390625 C-14.12207031 62.48310547 -14.12207031 62.48310547 -14.8125 63.9921875 C-15.23144531 64.90339355 -15.65039062 65.81459961 -16.08203125 66.75341797 C-17.12608298 68.90408622 -17.12608298 68.90408622 -17 71 C-10.07 71.99 -3.14 72.98 4 74 C2.89076107 68.45380536 1.0710136 63.51834895 -0.9375 58.25 C-1.29779297 57.27933594 -1.65808594 56.30867187 -2.02929688 55.30859375 C-2.37927734 54.38691406 -2.72925781 53.46523438 -3.08984375 52.515625 C-3.40816162 51.67290039 -3.72647949 50.83017578 -4.05444336 49.96191406 C-4.83714294 47.8266088 -4.83714294 47.8266088 -7 47 Z " fill="#FBFBFB" transform="translate(822,696)"/>
<path d="M0 0 C6.04058081 4.56399439 8.85900183 11.66380885 10 19 C11.08745985 37.99939987 9.32677813 57.20057118 8.02856445 76.15209961 C7.7383186 80.39640298 7.46790124 84.64173114 7.2021513 88.88762951 C6.99253619 92.19195281 6.77079585 95.49537913 6.54554176 98.79866982 C6.44050186 100.36564006 6.33964179 101.93289665 6.24316978 103.50041771 C6.10793277 105.67477475 5.95589071 107.84733518 5.79956055 110.02026367 C5.71739792 111.25137375 5.63523529 112.48248383 5.55058289 113.75090027 C4.96843709 117.18625902 4.06311504 119.21482168 2 122 C1.01 122.495 1.01 122.495 0 123 C-0.4125 124.093125 -0.825 125.18625 -1.25 126.3125 C-2.86001909 130.34993248 -5.2789477 131.78320288 -9 134 C-9.66 134.99 -10.32 135.98 -11 137 C-11.99 137 -12.98 137 -14 137 C-14.33 138.65 -14.66 140.3 -15 142 C-15.99 142.33 -16.98 142.66 -18 143 C-18.88856041 131.88231072 -19.22783409 120.79474434 -19.41499138 109.64569855 C-19.46623591 106.62095152 -19.52279158 103.59634267 -19.58070374 100.57171631 C-19.74446306 91.98169845 -19.90074673 83.39155926 -20.04956055 74.80126953 C-20.55626761 42.81175846 -20.55626761 42.81175846 -22.59985352 10.89355469 C-22.9574504 6.90598612 -23.08288315 3.001973 -23 -1 C-14.79247088 -3.68000951 -7.92674413 -3.6872049 0 0 Z " fill="#FAFAFA" transform="translate(409,695)"/>
<path d="M0 0 C6.18442316 4.70874735 9.33564815 10.75178434 10.37890625 18.40234375 C11.03298589 28.78993034 8.71996191 37.00953576 1.77734375 45.03125 C-4.59716923 51.19327922 -10.77748149 53.67441278 -19.57421875 53.99609375 C-30.19946835 53.61133541 -37.55802381 50.1055598 -45.13671875 42.62109375 C-50.65477572 36.05628593 -52.4531667 28.77966192 -52.13671875 20.30859375 C-50.9938808 10.94257702 -46.57671113 2.77643606 -39.15234375 -3.046875 C-25.77673824 -11.88618019 -12.65699975 -8.16804555 0 0 Z " fill="#FAFAFA" transform="translate(481.13671875,36.37890625)"/>
<path d="M0 0 C3.03311888 4.38753045 3.49944692 9.805752 3 15 C2.37393625 16.35287339 1.71402992 17.69141928 1 19 C-0.11890625 18.90460937 -1.2378125 18.80921875 -2.390625 18.7109375 C-25.64808894 16.99741182 -50.40612081 18.43666994 -72.87109375 25.11328125 C-77.48728895 26.42149138 -81.44617156 26.51794281 -86 25 C-90.3845108 18.9390586 -91.67966866 12.86110844 -90.640625 5.4296875 C-90.00772279 2.44737559 -89.36604983 -0.26790033 -88 -3 C-63.90844438 -12.83642462 -23.18127805 -13.82801927 0 0 Z " fill="#FAFAFA" transform="translate(859,812)"/>
<path d="M0 0 C6.52456102 5.68194756 10.22935072 11.65865735 11.2734375 20.25 C11.62707741 28.08448423 9.2485137 35.24892715 4.44140625 41.43359375 C-1.54673487 47.94103167 -8.23020782 49.95561259 -16.875 50.375 C-23.88064171 50.21333135 -29.49003603 47.61016557 -35.3125 43.875 C-40.9052124 37.89209836 -43.61474096 30.91205274 -44.25 22.8125 C-43.61173581 13.07897111 -40.2966814 6.53493994 -33 0 C-23.04272153 -6.78043248 -10.05863117 -6.46244799 0 0 Z " fill="#F9F9F9" transform="translate(802,75)"/>
<path d="M0 0 C6.19850985 4.53187552 10.09131583 10.31607684 11.58984375 17.93359375 C12.71595312 26.30263381 11.30518501 32.63822724 6.60546875 39.66015625 C2.56243728 44.80970159 -1.5140719 47.85297525 -7.87890625 49.55078125 C-16.69454453 50.33825706 -24.80958703 50.45097703 -31.99609375 44.921875 C-37.91659674 39.55438602 -41.25146774 33.72174 -42.21875 25.75 C-42.50599422 17.44289703 -40.40730121 10.78402701 -35.40234375 4.15625 C-26.35045256 -5.38305072 -11.12502419 -6.48503052 0 0 Z " fill="#FAFAFA" transform="translate(895.87890625,255.44921875)"/>
<path d="M0 0 C6.65272724 4.23890585 10.12096752 9.36643055 12 17 C13.12104978 23.8430747 11.51640491 30.06423016 8 36 C2.4158442 42.31860635 -3.26787091 45.22420756 -11.60546875 45.95703125 C-19.57369538 46.10001737 -25.23968273 43.40764479 -31 38 C-35.67114096 32.83715999 -36.5816379 26.77223646 -37 20 C-36.45798383 12.58115366 -33.56748235 7.50913047 -28.25 2.3125 C-19.3566445 -4.01546449 -9.8524824 -4.81447656 0 0 Z " fill="#F8F8F8" transform="translate(1027,427)"/>
<path d="M0 0 C5.75329317 3.33456176 10.8120825 7.67978913 12.9140625 14.109375 C14.49820753 22.10494162 14.15312437 28.81339063 9.84375 35.859375 C6.45208525 40.35164619 2.16309128 42.85168644 -3.0234375 44.859375 C-10.89288387 45.81324729 -16.92643856 44.56529666 -24.0859375 41.109375 C-28.644389 37.42381847 -33.37468878 32.15498912 -34.0859375 26.109375 C-34.64600754 17.84834188 -33.14322484 11.24623767 -27.8359375 4.734375 C-20.4805586 -2.95812543 -9.68140496 -4.2231643 0 0 Z " fill="#F8F8F8" transform="translate(332.0859375,84.890625)"/>
<path d="M0 0 C0.82951172 0.556875 0.82951172 0.556875 1.67578125 1.125 C3.03703125 1.99125 3.03703125 1.99125 4.42578125 2.875 C9.15944793 7.60866668 11.44146212 13.44690487 11.67578125 20.125 C11.06589385 27.17114588 8.33709844 32.82660074 3.67578125 38.125 C-2.30735736 42.81588405 -8.93017322 43.92217053 -16.32421875 43.125 C-24.00955374 41.2856744 -28.9501174 37.67977579 -33.32421875 31.125 C-35.90195696 25.74537242 -36.21309299 20.3421187 -34.63671875 14.63671875 C-32.04351126 7.5162032 -28.69633398 2.21571144 -22.19921875 -1.8125 C-14.89598737 -4.40344683 -6.64638145 -3.96305975 0 0 Z " fill="#F9F9F9" transform="translate(171.32421875,388.875)"/>
<path d="M0 0 C0 0.66 0 1.32 0 2 C-1.50390625 3.296875 -1.50390625 3.296875 -3.5625 4.75 C-6.40932613 6.81812058 -9.18576039 8.91721562 -11.875 11.1875 C-12.42929687 11.65542969 -12.98359375 12.12335938 -13.5546875 12.60546875 C-15.24677135 14.13873922 -15.24677135 14.13873922 -17 17 C-17.66 17 -18.32 17 -19 17 C-19 17.66 -19 18.32 -19 19 C-19.66 19 -20.32 19 -21 19 C-21.22558594 19.53238281 -21.45117188 20.06476563 -21.68359375 20.61328125 C-23.08070336 23.14631974 -24.77860185 25.24969994 -26.63012695 27.46386719 C-37.26584406 40.26225866 -43.63420871 54.24552219 -48.41748047 70.09130859 C-49.22729867 72.74476991 -50.11034452 75.37241288 -51 78 C-60.54116175 78.53006454 -67.97549521 76.35539313 -75.50390625 70.40234375 C-77.98612757 68.07566633 -78.01127898 66.86916388 -78.3125 63.375 C-78.13472269 54.40532688 -72.1014826 48.0090359 -66 42 C-58.52895707 35.28537107 -50.35588338 29.55059111 -42 24 C-41.4337793 23.62343262 -40.86755859 23.24686523 -40.28417969 22.85888672 C-32.8197753 17.92125276 -25.21522026 13.3145369 -17.4140625 8.9296875 C-15.10095609 7.62227953 -12.80641302 6.30272256 -10.5234375 4.9453125 C-9.44320312 4.30335937 -8.36296875 3.66140625 -7.25 3 C-6.28578125 2.4225 -5.3215625 1.845 -4.328125 1.25 C-2 0 -2 0 0 0 Z " fill="#F6F6F6" transform="translate(496,90)"/>
<path d="M0 0 C6.5631043 2.53014888 12.48932413 5.52275073 17 11 C16.113125 11.94875 15.22625 12.8975 14.3125 13.875 C7.87878512 21.36067299 4.66567253 29.47824659 4.78125 39.2734375 C5.34997087 46.36213691 7.67088144 52.35902733 12 58 C12.928125 59.299375 12.928125 59.299375 13.875 60.625 C16.30473281 63.34058373 18.90469595 65.10060888 22 67 C17.06020625 68.89259568 13.08821392 66.53336388 8.453125 64.63671875 C-3.40708473 59.015194 -11.78475853 50.47138183 -16.4375 38.125 C-19.43155579 29.12940636 -20.97173795 18.76999159 -17.05859375 9.8203125 C-12.90997379 2.6865232 -8.62001273 -1.43441342 0 0 Z " fill="#F6F6F6" transform="translate(330,320)"/>
<path d="M0 0 C4.03756817 3.90870961 6.66803634 8.03819437 7.30078125 13.68359375 C7.34258892 23.50839614 7.34258892 23.50839614 4 28 C-1.70824318 33.1386308 -6.05405389 35.34528534 -13.8515625 35.21484375 C-19.36485875 34.66351412 -24.55511455 32.37467783 -28.6796875 28.64453125 C-32.20421695 24.25451084 -33.72919501 18.92948556 -34.5 13.4375 C-33.66056692 7.66639755 -31.72521497 2.86898289 -27.75 -1.4375 C-18.61081773 -6.6302172 -8.4573699 -6.13573895 0 0 Z " fill="#F8F8F8" transform="translate(241,264)"/>
<path d="M0 0 C2.1875 -0.375 2.1875 -0.375 5 0 C10.7801757 5.49116692 15.33092319 13.58752709 15.96484375 21.6171875 C16.01254982 24.85059869 15.9305201 28.07927042 15.875 31.3125 C15.84492076 46.50251722 22.05449907 56.81131145 32 68 C23.75402033 67.6073343 17.77537812 65.77537812 11.83203125 59.83203125 C1.244284 47.33729763 -3.10451443 31.61968595 -3.1875 15.4375 C-3.20876953 13.54837891 -3.20876953 13.54837891 -3.23046875 11.62109375 C-2.95624669 7.31255387 -1.92309326 3.84618653 0 0 Z " fill="#F4F4F4" transform="translate(326,174)"/>
<path d="M0 0 C3.88385493 1.29461831 4.30534479 2.71941239 6.25 6.25 C6.79140625 7.20390625 7.3328125 8.1578125 7.890625 9.140625 C9.18237753 12.47007166 9.40042374 13.72006018 8 17 C5.3828125 19.38671875 5.3828125 19.38671875 2.125 21.6875 C1.05507812 22.45449219 -0.01484375 23.22148437 -1.1171875 24.01171875 C-6.91455242 28.01017233 -6.91455242 28.01017233 -9.625 27.6875 C-12 27 -12 27 -13 26 C-13.23728814 19.47457627 -13.23728814 19.47457627 -12 17 C-10.02 17 -8.04 17 -6 17 C-5.67 18.98 -5.34 20.96 -5 23 C-4.05125 22.34 -3.1025 21.68 -2.125 21 C1 19 1 19 3 19 C2.6390625 18.31292969 2.278125 17.62585938 1.90625 16.91796875 C1.4421875 16.01691406 0.978125 15.11585938 0.5 14.1875 C0.0359375 13.29417969 -0.428125 12.40085937 -0.90625 11.48046875 C-2 9 -2 9 -2 6 C-3.65 6.33 -5.3 6.66 -7 7 C-7 7.66 -7 8.32 -7 9 C-11.0909066 12.31168629 -13.73628638 13.50130606 -19 13 C-20.50751963 10.60570412 -21.00562203 9.23612509 -20.9375 6.375 C-20 4 -20 4 -17.4375 2.6875 C-16.633125 2.460625 -15.82875 2.23375 -15 2 C-13.68 3.98 -12.36 5.96 -11 8 C-10.51789063 7.6390625 -10.03578125 7.278125 -9.5390625 6.90625 C-8.90742187 6.4421875 -8.27578125 5.978125 -7.625 5.5 C-6.68527344 4.80390625 -6.68527344 4.80390625 -5.7265625 4.09375 C-4 3 -4 3 -2 3 C-2 2.34 -2 1.68 -2 1 C-1.34 0.67 -0.68 0.34 0 0 Z M-1 3 C-0.34580901 8.06998019 1.8546409 12.41990777 4 17 C4.66 16.34 5.32 15.68 6 15 C4.02 11.04 2.04 7.08 0 3 C-0.33 3 -0.66 3 -1 3 Z " fill="#DADADA" transform="translate(1068,357)"/>
<path d="M0 0 C0.78375 0.04125 1.5675 0.0825 2.375 0.125 C2.375 2.105 2.375 4.085 2.375 6.125 C1.715 6.125 1.055 6.125 0.375 6.125 C0.375 6.785 0.375 7.445 0.375 8.125 C-0.285 8.125 -0.945 8.125 -1.625 8.125 C-1.625 8.785 -1.625 9.445 -1.625 10.125 C-3 11.75 -3 11.75 -4.625 13.125 C-5.285 13.125 -5.945 13.125 -6.625 13.125 C-6.625 13.785 -6.625 14.445 -6.625 15.125 C-7.285 15.125 -7.945 15.125 -8.625 15.125 C-8.625 15.785 -8.625 16.445 -8.625 17.125 C-10.5 19.25 -10.5 19.25 -12.625 21.125 C-13.285 21.125 -13.945 21.125 -14.625 21.125 C-14.625 21.785 -14.625 22.445 -14.625 23.125 C-15.285 23.125 -15.945 23.125 -16.625 23.125 C-16.625 23.785 -16.625 24.445 -16.625 25.125 C-18.75 27.75 -18.75 27.75 -21.625 30.125 C-24.9375 30.4375 -24.9375 30.4375 -27.625 30.125 C-27.9375 27.9375 -27.9375 27.9375 -27.625 25.125 C-25.5 22.75 -25.5 22.75 -22.625 20.125 C-21.65330974 18.99047153 -20.69549379 17.84395074 -19.75 16.6875 C-17.16879262 13.62853702 -14.37568965 11.08657728 -11.296875 8.5390625 C-8.93135455 6.53831857 -6.78327721 4.34494227 -4.625 2.125 C-2.625 0.125 -2.625 0.125 0 0 Z " fill="#E8E8E8" transform="translate(27.625,525.875)"/>
<path d="M0 0 C1.32 0.66 2.64 1.32 4 2 C3.34947535 9.70920259 1.28222545 16.9465181 -0.8125 24.375 C-1.15965118 25.67053381 -1.5066575 26.96610645 -1.85351562 28.26171875 C-2.19705078 29.48246094 -2.54058594 30.70320312 -2.89453125 31.9609375 C-3.35629761 33.62842041 -3.35629761 33.62842041 -3.82739258 35.32958984 C-5 38 -5 38 -7.1315918 39.37744141 C-7.7481665 39.58288574 -8.36474121 39.78833008 -9 40 C-9.99 39.34 -10.98 38.68 -12 38 C-10.58166808 30.23908897 -8.66949145 22.66287891 -6.5625 15.0625 C-6.26279297 13.94037109 -5.96308594 12.81824219 -5.65429688 11.66210938 C-5.20860352 10.05239258 -5.20860352 10.05239258 -4.75390625 8.41015625 C-4.48908447 7.44215088 -4.2242627 6.47414551 -3.95141602 5.47680664 C-2.98141582 2.95162009 -2.05407272 1.71647622 0 0 Z " fill="#EAEAEA" transform="translate(45,536)"/>
<path d="M0 0 C0.66 0 1.32 0 2 0 C2.7029621 2.37136571 3.38746745 4.74567735 4.0625 7.125 C4.26166016 7.79015625 4.46082031 8.4553125 4.66601562 9.140625 C5.87241906 13.45827938 6.0778919 16.64775722 5 21 C4.67 21 4.34 21 4 21 C3.89042969 20.38511719 3.78085938 19.77023437 3.66796875 19.13671875 C3.50941406 18.32847656 3.35085938 17.52023437 3.1875 16.6875 C3.03667969 15.88699219 2.88585938 15.08648437 2.73046875 14.26171875 C1.92427764 11.76554413 0.97947998 10.67577894 -1 9 C-2.10450255 11.52068663 -3.20861043 14.04154494 -4.3125 16.5625 C-4.62123047 17.26697266 -4.92996094 17.97144531 -5.24804688 18.69726562 C-5.55419922 19.39658203 -5.86035156 20.09589844 -6.17578125 20.81640625 C-6.63718506 21.86272217 -6.63718506 21.86272217 -7.10791016 22.93017578 C-7.69145675 24.28411885 -8.25460766 25.64708217 -8.79443359 27.01904297 C-10.1777934 30.49955098 -10.7892666 31.85951106 -14 34 C-17.33598971 34.35489252 -19.35793388 34.32103306 -22.375 32.8125 C-24 31 -24 31 -24.375 28.4375 C-24 26 -24 26 -22 24 C-18.37 24 -14.74 24 -11 24 C-7.37 16.08 -3.74 8.16 0 0 Z " fill="#E0E0E0" transform="translate(1048,332)"/>
<path d="M0 0 C1.2065625 0.0309375 1.2065625 0.0309375 2.4375 0.0625 C3.29865051 3.59789425 3.45735266 6.33941353 2.87890625 9.92578125 C2.74033203 10.81201172 2.60175781 11.69824219 2.45898438 12.61132812 C2.23178711 13.9793457 2.23178711 13.9793457 2 15.375 C1.85240234 16.30634766 1.70480469 17.23769531 1.55273438 18.19726562 C1.18873768 20.48692228 0.81415732 22.77489198 0.4375 25.0625 C-3.1925 24.4025 -6.8225 23.7425 -10.5625 23.0625 C-9.42037869 19.4154651 -8.27399899 15.76986765 -7.125 12.125 C-6.79951172 11.08408203 -6.47402344 10.04316406 -6.13867188 8.97070312 C-5.82607422 7.98134766 -5.51347656 6.99199219 -5.19140625 5.97265625 C-4.90338135 5.05621338 -4.61535645 4.13977051 -4.31860352 3.19555664 C-3.21366017 0.07838196 -3.21366017 0.07838196 0 0 Z " fill="#EFEFEF" transform="translate(1010.5625,374.9375)"/>
<path d="M0 0 C0.97710938 0.20238281 1.95421875 0.40476562 2.9609375 0.61328125 C4.43433594 0.89751953 4.43433594 0.89751953 5.9375 1.1875 C7.12472656 1.55294922 7.12472656 1.55294922 8.3359375 1.92578125 C9.78024605 4.81439834 9.71282256 6.72225826 9.3359375 9.92578125 C6.87999625 13.24852529 5.4102731 14.70196133 1.3359375 15.55078125 C-2.77695517 14.69392861 -4.26093182 13.34842192 -6.6640625 9.92578125 C-6.6640625 6.4182877 -6.4683735 4.09073493 -4.453125 1.171875 C-2.6640625 -0.07421875 -2.6640625 -0.07421875 0 0 Z " fill="#E9E9E9" transform="translate(1002.6640625,400.07421875)"/>
<path d="M0 0 C2.4375 1.5625 2.4375 1.5625 4 4 C4.56288002 7.94016013 4.60396028 10.05782196 2.4375 13.4375 C-0.94217804 15.60396028 -3.05983987 15.56288002 -7 15 C-9.4375 13.4375 -9.4375 13.4375 -11 11 C-11.56288002 7.05983987 -11.60396028 4.94217804 -9.4375 1.5625 C-6.05782196 -0.60396028 -3.94016013 -0.56288002 0 0 Z " fill="#F1F1F1" transform="translate(72,443)"/>
<path d="M0 0 C0.66 0 1.32 0 2 0 C-0.21047028 9.48884805 -3.02395126 18.73072565 -6 28 C-12.625 29.125 -12.625 29.125 -16 28 C-16.04254356 26.00045254 -16.04080783 23.99958364 -16 22 C-15 21 -15 21 -12.93359375 20.90234375 C-11.69802734 20.91974609 -11.69802734 20.91974609 -10.4375 20.9375 C-9.61121094 20.94652344 -8.78492188 20.95554687 -7.93359375 20.96484375 C-6.97646484 20.98224609 -6.97646484 20.98224609 -6 21 C-5.62875 19.14375 -5.62875 19.14375 -5.25 17.25 C-3.95181648 11.35173142 -1.98560032 5.69655237 0 0 Z " fill="#DDDDDD" transform="translate(1016,337)"/>
<path d="M0 0 C0.66 0 1.32 0 2 0 C2.7029621 2.37136571 3.38746745 4.74567735 4.0625 7.125 C4.26166016 7.79015625 4.46082031 8.4553125 4.66601562 9.140625 C5.87241906 13.45827938 6.0778919 16.64775722 5 21 C4.67 21 4.34 21 4 21 C3.89042969 20.38511719 3.78085938 19.77023437 3.66796875 19.13671875 C3.50941406 18.32847656 3.35085938 17.52023437 3.1875 16.6875 C3.03667969 15.88699219 2.88585938 15.08648437 2.73046875 14.26171875 C1.92427764 11.76554413 0.97947998 10.67577894 -1 9 C-1.25394531 9.63808594 -1.50789063 10.27617187 -1.76953125 10.93359375 C-2.11371094 11.75988281 -2.45789062 12.58617187 -2.8125 13.4375 C-3.14894531 14.26121094 -3.48539063 15.08492188 -3.83203125 15.93359375 C-5 18 -5 18 -8 19 C-6.00386732 12.2813095 -3.2708579 6.19265192 0 0 Z " fill="#DEDEDE" transform="translate(1048,332)"/>
<path d="M0 0 C1.98 0 3.96 0 6 0 C7.38550197 2.77100394 7.1877467 4.9334706 7 8 C6.01 9.485 6.01 9.485 5 11 C0.125 10.125 0.125 10.125 -1 9 C-1.23728814 2.47457627 -1.23728814 2.47457627 0 0 Z " fill="#F0F0F0" transform="translate(1056,374)"/>
<path d="M0 0 C3 2 3 2 3.546875 3.91015625 C3.7381288 5.93671099 3.87101785 7.96853114 4 10 C3 11 3 11 -0.0625 11.0625 C-1.031875 11.041875 -2.00125 11.02125 -3 11 C-4.52194825 8.58278807 -5.01261321 7.26487742 -4.875 4.375 C-4 2 -4 2 -1.9375 0.6875 C-1.298125 0.460625 -0.65875 0.23375 0 0 Z " fill="#EAEAEA" transform="translate(1052,359)"/>
<path d="M0 0 C0.99 0.33 1.98 0.66 3 1 C2.79503906 1.55171875 2.59007812 2.1034375 2.37890625 2.671875 C1.87886008 5.74432361 2.70701436 7.41615428 3.9375 10.25 C4.50791016 11.58804687 4.50791016 11.58804687 5.08984375 12.953125 C5.39019531 13.62859375 5.69054688 14.3040625 6 15 C5.01 15.495 5.01 15.495 4 16 C3.32591692 14.73308493 2.66099503 13.46129251 2 12.1875 C1.443125 11.12595703 1.443125 11.12595703 0.875 10.04296875 C0 8 0 8 0 5 C-1.65 5.33 -3.3 5.66 -5 6 C-5 6.66 -5 7.32 -5 8 C-6.65 8.66 -8.3 9.32 -10 10 C-10.33 8.35 -10.66 6.7 -11 5 C-10.34 5.66 -9.68 6.32 -9 7 C-8.51789063 6.6390625 -8.03578125 6.278125 -7.5390625 5.90625 C-6.59160156 5.21015625 -6.59160156 5.21015625 -5.625 4.5 C-4.99851562 4.0359375 -4.37203125 3.571875 -3.7265625 3.09375 C-2 2 -2 2 0 2 C0 1.34 0 0.68 0 0 Z " fill="#C1C1C1" transform="translate(1066,358)"/>
<path d="M0 0 C0.66 0.33 1.32 0.66 2 1 C-3.61 6.61 -9.22 12.22 -15 18 C-15.66 17.67 -16.32 17.34 -17 17 C-14.26281282 13.27742544 -11.26983109 10.42094006 -7.74609375 7.48828125 C-5.35525338 5.45045087 -3.18827394 3.25263494 -1 1 C-0.67 0.67 -0.34 0.34 0 0 Z " fill="#C0C0C0" transform="translate(438,125)"/>
<path d="M0 0 C0 0.66 0 1.32 0 2 C-1.64453125 3.4375 -1.64453125 3.4375 -3.8125 5 C-4.87404297 5.7734375 -4.87404297 5.7734375 -5.95703125 6.5625 C-7.62080729 7.73318754 -9.30730211 8.87153474 -11 10 C-11 8.35 -11 6.7 -11 5 C-9.54462432 4.16151196 -8.08559627 3.32936066 -6.625 2.5 C-5.81289063 2.0359375 -5.00078125 1.571875 -4.1640625 1.09375 C-2 0 -2 0 0 0 Z " fill="#BFBFBF" transform="translate(496,90)"/>
<path d="M0 0 C1.9078584 3.1749094 2.1609041 5.10585211 1.625 8.75 C1.51414062 9.54921875 1.40328125 10.3484375 1.2890625 11.171875 C1.19367187 11.77515625 1.09828125 12.3784375 1 13 C0.01 13 -0.98 13 -2 13 C-1.85769192 11.58297487 -1.71099254 10.1663904 -1.5625 8.75 C-1.48128906 7.96109375 -1.40007813 7.1721875 -1.31640625 6.359375 C-1.02365007 4.17635361 -0.57935581 2.1226818 0 0 Z " fill="#C8C8C8" transform="translate(563,767)"/>
<path d="M0 0 C0.33 0 0.66 0 1 0 C1.55992558 2.22465057 2.09727454 4.45499185 2.625 6.6875 C2.92664063 7.92886719 3.22828125 9.17023438 3.5390625 10.44921875 C4.0172926 14.13321167 3.71644584 15.77085909 2 19 C1.67 19 1.34 19 1 19 C0.67 12.73 0.34 6.46 0 0 Z " fill="#CBCBCB" transform="translate(806,216)"/>
<path d="M0 0 C0 0.66 0 1.32 0 2 C-0.66 2 -1.32 2 -2 2 C-2 2.66 -2 3.32 -2 4 C-3.65 4.66 -5.3 5.32 -7 6 C-7.33 4.35 -7.66 2.7 -8 1 C-7.34 1.66 -6.68 2.32 -6 3 C-5.38125 2.505 -4.7625 2.01 -4.125 1.5 C-2 0 -2 0 0 0 Z " fill="#B3B3B3" transform="translate(1063,362)"/>
<path d="M0 0 C-1.33332095 3.99996286 -3.4957827 4.83782337 -7 7 C-7.66 6.67 -8.32 6.34 -9 6 C-3.2 0 -3.2 0 0 0 Z " fill="#BEBEBE" transform="translate(1071,376)"/>
<path d="M0 0 C0.66 0.33 1.32 0.66 2 1 C1.34 2.65 0.68 4.3 0 6 C-0.99 5.67 -1.98 5.34 -3 5 C-3.33 4.01 -3.66 3.02 -4 2 C-2.125 0.9375 -2.125 0.9375 0 0 Z " fill="#DBDBDB" transform="translate(484,96)"/>
<path d="M0 0 C0.33 0 0.66 0 1 0 C1.22174933 1.45635371 1.42698698 2.91522956 1.625 4.375 C1.74101563 5.18710937 1.85703125 5.99921875 1.9765625 6.8359375 C1.98429687 7.55007813 1.99203125 8.26421875 2 9 C1.34 9.66 0.68 10.32 0 11 C-0.19491452 9.54263913 -0.38069358 8.08405407 -0.5625 6.625 C-0.66691406 5.81289063 -0.77132813 5.00078125 -0.87890625 4.1640625 C-1 2 -1 2 0 0 Z " fill="#B9B9B9" transform="translate(1052,342)"/>
<path d="M0 0 C0.66 0.33 1.32 0.66 2 1 C-0.64 3.64 -3.28 6.28 -6 9 C-6 6 -6 6 -3.5625 3.375 C-2.716875 2.59125 -1.87125 1.8075 -1 1 C-0.67 0.67 -0.34 0.34 0 0 Z " fill="#AEAEAE" transform="translate(216,261)"/>
<path d="M0 0 C2 4 2 4 1.3125 6.1875 C0 8 0 8 -3 9 C-2.01 6.03 -1.02 3.06 0 0 Z " fill="#CBCBCB" transform="translate(1043,342)"/>
<path d="M0 0 C0.66 0.33 1.32 0.66 2 1 C-0.31 3.31 -2.62 5.62 -5 8 C-5 5 -5 5 -2.5 2.3125 C-1.675 1.549375 -0.85 0.78625 0 0 Z " fill="#C2C2C2" transform="translate(865,256)"/>
<path d="M0 0 C2 1 2 1 2 1 Z " fill="#636363" transform="translate(496,89)"/>
</svg>
